<?xml version="1.0" standalone="no"?>
<!DOCTYPE svg PUBLIC "-//W3C//DTD SVG 20010904//EN"
 "http://www.w3.org/TR/2001/REC-SVG-20010904/DTD/svg10.dtd">
<svg version="1.0" xmlns="http://www.w3.org/2000/svg"
 width="700.000000pt" height="700.000000pt" viewBox="0 0 700.000000 700.000000"
 preserveAspectRatio="xMidYMid meet">
<metadata>
Created by potrace 1.11, written by Peter Selinger 2001-2013
</metadata>
<g transform="translate(0.000000,700.000000) scale(0.100000,-0.100000)"
fill="#000000" stroke="none">
<path d="M4263 6894 c-87 -26 -176 -78 -238 -139 -301 -297 -179 -802 225
-925 431 -132 835 295 678 717 -64 174 -199 296 -388 351 -37 11 -238 8 -277
-4z"/>
<path d="M3006 6301 c-22 -25 -19 -59 29 -281 36 -168 195 -470 338 -641 93
-112 255 -256 372 -331 195 -126 466 -222 690 -245 157 -16 390 -3 560 32 385
79 846 315 1134 580 120 110 141 134 141 162 0 98 -408 565 -536 613 -35 14
-47 5 -108 -68 -93 -115 -218 -235 -306 -295 -307 -210 -567 -290 -920 -282
-491 10 -938 245 -1235 648 -41 56 -80 108 -85 115 -16 18 -55 15 -74 -7z"/>
<path d="M1730 5424 c-192 -27 -444 -95 -460 -123 -4 -9 -21 -68 -36 -131 -33
-134 -27 -111 -43 -185 -7 -33 -19 -82 -26 -110 -15 -51 -140 -570 -149 -615
-5 -28 -23 -89 -27 -93 -1 -1 3 -12 10 -25 25 -47 46 -44 195 33 266 136 573
243 776 270 25 3 61 8 80 11 63 8 256 5 326 -6 390 -61 541 -342 311 -578
-173 -177 -526 -289 -964 -306 -86 -4 -93 -2 -93 15 0 20 -3 21 -70 21 -22 0
-45 -1 -51 -1 -20 -2 -4 -139 30 -256 118 -403 225 -683 303 -792 47 -65 68
-70 206 -42 168 34 413 34 564 0 310 -70 524 -271 593 -556 101 -414 -63 -744
-473 -949 -85 -43 -287 -117 -357 -131 -16 -3 -34 -7 -40 -9 -35 -9 -74 -16
-175 -31 -157 -24 -456 -24 -571 1 -13 2 -48 9 -76 15 -164 31 -377 126 -527
233 -356 255 -648 728 -841 1361 -41 138 -44 144 -71 161 -15 11 -24 11 -44 1
-24 -12 -25 -17 -24 -92 1 -94 13 -212 34 -335 5 -30 11 -71 14 -90 40 -255
147 -589 269 -835 247 -498 642 -869 1102 -1035 50 -17 99 -36 110 -41 40 -16
232 -59 330 -73 203 -29 578 -11 732 34 21 6 51 14 68 17 79 14 364 132 450
186 188 118 292 204 406 337 155 180 261 401 305 640 15 79 20 258 10 355 -7
66 -18 140 -22 146 -2 4 -6 23 -10 43 -20 131 -151 455 -229 571 -14 20 -25
38 -25 41 0 3 -10 19 -21 36 l-21 29 43 -6 c24 -3 62 -8 83 -11 125 -19 336
-5 465 32 158 46 326 151 476 298 116 114 178 189 355 426 108 144 225 295
294 379 59 71 260 262 315 299 126 84 213 78 304 -22 88 -98 190 -385 213
-605 3 -31 7 -58 9 -61 11 -17 20 -229 20 -450 0 -334 -15 -502 -69 -765 -101
-494 -314 -827 -563 -883 -22 -5 -70 -8 -105 -6 -272 14 -617 312 -998 862
-48 70 -80 86 -110 56 -10 -11 -22 -37 -25 -59 -11 -62 -14 -333 -4 -405 54
-406 228 -725 507 -933 32 -23 59 -44 62 -47 10 -10 86 -51 148 -80 167 -79
322 -111 517 -105 147 4 149 4 284 36 188 44 392 146 557 278 283 225 488 555
614 991 12 41 24 86 27 100 2 14 8 41 13 60 5 19 16 82 24 140 8 58 18 123 21
145 10 65 13 474 5 555 -20 190 -25 225 -46 325 -8 39 -17 81 -20 95 -12 62
-78 269 -114 360 -187 469 -480 806 -860 988 -423 203 -786 177 -1130 -78
-105 -79 -280 -251 -380 -375 -35 -44 -67 -82 -70 -85 -3 -3 -69 -90 -145
-194 -338 -455 -456 -592 -638 -741 -55 -44 -180 -112 -247 -133 -195 -62
-400 -23 -646 123 l-32 19 72 47 c363 238 604 539 692 864 22 85 27 121 27
240 1 77 -5 167 -12 200 -113 539 -585 925 -1241 1014 -95 13 -361 10 -470 -5z"/>
</g>
</svg>
